HIERARCHY
ROOT Hips
{
  OFFSET 35.6588 99.5152 17.108
  CHANNELS 6 Xposition Yposition Zposition Zrotation Xrotation Yrotation
  JOINT ToSpine
  {
    OFFSET -0.0105055 1.38907 -7.13956
    CHANNELS 3 Zrotation Xrotation Yrotation
    JOINT Spine
    {
      OFFSET 0.0105055 10 1
      CHANNELS 3 Zrotation Xrotation Yrotation
      JOINT Spine1
      {
        OFFSET 0 12 1.60637
        CHANNELS 3 Zrotation Xrotation Yrotation
        JOINT Neck
        {
          OFFSET 0 27 2.26658
          CHANNELS 3 Zrotation Xrotation Yrotation
          JOINT Head
          {
            OFFSET 0 9 2.12705
            CHANNELS 3 Zrotation Xrotation Yrotation
            End Site
            {
              OFFSET 0 11 2
            }
          }
        }
        JOINT LeftShoulder
        {
          OFFSET 8 19.6109 2.86452
          CHANNELS 3 Zrotation Xrotation Yrotation
          JOINT LeftArm
          {
            OFFSET 12 1 0.681055
            CHANNELS 3 Zrotation Xrotation Yrotation
            JOINT LeftForeArm
            {
              OFFSET 19 0 -1.52608
              CHANNELS 3 Zrotation Xrotation Yrotation
              JOINT LeftHand
              {
                OFFSET 23 0 0
                CHANNELS 3 Zrotation Xrotation Yrotation
                End Site
                {
                  OFFSET 10 0 0
                }
              }
            }
          }
        }
        JOINT RightShoulder
        {
          OFFSET -8 19.6109 2.86452
          CHANNELS 3 Zrotation Xrotation Yrotation
          JOINT RightArm
          {
            OFFSET -12 1 0.681055
            CHANNELS 3 Zrotation Xrotation Yrotation
            JOINT RightForeArm
            {
              OFFSET -19 0 -1.52608
              CHANNELS 3 Zrotation Xrotation Yrotation
              JOINT RightHand
              {
                OFFSET -23 0 0
                CHANNELS 3 Zrotation Xrotation Yrotation
                End Site
                {
                  OFFSET -10 0 0
                }
              }
            }
          }
        }
      }
    }
  }
  JOINT LeftUpLeg
  {
    OFFSET 9 -7.17245 0
    CHANNELS 3 Zrotation Xrotation Yrotation
    JOINT LeftLeg
    {
      OFFSET 0 -44.1113 0
      CHANNELS 3 Zrotation Xrotation Yrotation
      JOINT LeftFoot
      {
        OFFSET 0 -36.1829 0
        CHANNELS 3 Zrotation Xrotation Yrotation
        JOINT LeftToeBase
        {
          OFFSET 0 -4.84184 13
          CHANNELS 3 Zrotation Xrotation Yrotation
          End Site
          {
            OFFSET 0 1 6
          }
        }
      }
    }
  }
  JOINT RightUpLeg
  {
    OFFSET -9 -7.17245 0
    CHANNELS 3 Zrotation Xrotation Yrotation
    JOINT RightLeg
    {
      OFFSET 0 -44.0551 0
      CHANNELS 3 Zrotation Xrotation Yrotation
      JOINT RightFoot
      {
        OFFSET 0 -36.1469 0
        CHANNELS 3 Zrotation Xrotation Yrotation
        JOINT RightToeBase
        {
          OFFSET 0 -4.92256 13
          CHANNELS 3 Zrotation Xrotation Yrotation
          End Site
          {
            OFFSET 0 1 6
          }
        }
      }
    }
  }
}
MOTION
Frames:	21
Frame Time:	0.0333333
35.6884 99.5152 17.1073 0.955788 -3.39451 -1.8404 0 0 0 1.7543 1.68812 0.905849 -4.3218 1.40064 1.53116 7.13127 2.15811 -2.07012 -5.45522 1.49912 1.48663 -29.3291 3.08585 -5.19914 -45.5024 23.913 -13.1723 -5.4818 -18.5751 -1.28907 -11.1831 0.473808 -4.75978 22.2137 4.48596 12.1178 56.1089 15.626 3.4537 4.8183 -7.61948 10.3151 3.28757 0.164234 5.72134 0.770699 4.65099 8.09659 -1.49582 6.90498 -2.92072 3.06906 -8.81197 0.236541 0.740271 -0.601918 -2.99758 -2.95246 4.5369 -8.72938 0.355712 5.51515 -0.337869 -11.3502 -2.27039 -0.225668 3.86424 -14.4203 -3.6608 
35.746 99.5152 17.0902 1.01732 -3.71025 -1.74145 0 0 0 1.71315 2.20686 0.868833 -4.30868 1.1934 1.49248 6.9889 2.20218 -2.09091 -5.25995 1.41469 1.37402 -29.4907 3.10844 -5.22333 -45.1476 23.7594 -13.2322 -5.4865 -21.2817 -0.573861 -12.2817 0.628823 -5.77628 22.1518 4.46854 12.0885 56.1876 15.836 3.40917 4.72514 -7.09832 10.4109 3.04468 0.142819 5.34443 0.58031 5.10138 7.97101 -1.34625 6.60436 -2.84803 2.9552 -8.76126 0.226401 0.761389 -0.401733 -3.12144 -3.07683 4.90551 -8.88987 0.390211 5.46345 -0.261836 -11.4173 -2.21475 -0.221302 3.85647 -14.3919 -3.76582 
35.6539 99.5103 17.0408 0.96724 -2.99546 -1.75207 0 0 0 1.05028 1.45525 1.01985 -3.27415 1.12803 1.44529 6.43335 2.83959 -2.11472 -4.86124 0.550489 1.07868 -30.3311 3.20458 -5.28913 -44.3993 26.0504 -12.9065 -5.98621 -19.9918 -2.08059 -9.78791 0.340982 -4.01947 21.8308 4.34801 11.835 56.2274 16.0866 3.59894 4.4729 -5.70898 10.0445 2.82212 0.119368 4.85724 0.724619 4.23311 7.91662 -1.37178 6.73349 -2.86505 2.80705 -8.76336 0.214883 0.742351 0.0680984 -3.11807 -2.82855 4.09702 -8.47986 0.235824 5.42503 -0.611249 -11.6468 -1.86963 -0.190784 3.79655 -14.146 -4.31173 
35.6644 99.5 17.0245 0.959748 -2.93287 -1.6904 0 0 0 1.22532 1.31909 1.05208 -3.58852 1.30681 1.54315 6.63012 2.74732 -2.26837 -4.88354 0.505107 0.988704 -29.9572 3.20647 -5.38434 -45.2269 23.7324 -13.2936 -5.47869 -17.9146 -0.821507 -10.3696 0.397259 -4.37664 22.0809 4.32795 11.639 55.798 15.7083 4.4431 4.04429 -3.11176 8.55117 4.11986 0.175189 4.87153 0.685109 4.1547 7.82506 -1.37982 6.70329 -3.27412 3.29472 -8.36452 0.24111 0.705579 0.276637 -2.99947 -2.82136 4.02859 -8.4952 0.256217 5.41776 -0.861901 -11.588 -1.92775 -0.195461 3.80939 -14.1979 -4.03458 
35.6947 99.5156 17.0116 0.935193 -3.01017 -1.70012 0 0 0 0.982166 1.47702 0.998888 -2.99571 1.27039 1.37492 5.89753 2.76905 -1.91978 -4.58455 0.365407 1.02618 -30.8962 3.19965 -5.14199 -44.2234 24.6971 -13.1873 -5.69959 -19.1064 -1.34985 -10.2278 0.388909 -4.34342 21.6083 4.28117 11.7127 55.9821 15.7709 4.54604 4.08773 -3.22338 8.33331 3.47878 0.151476 4.98431 0.759838 4.26673 7.96424 -1.52399 6.65591 -3.37704 3.54298 -8.30113 0.257198 0.702294 0.296781 -2.98923 -2.83593 4.11865 -8.52644 0.234699 5.42927 -0.693461 -11.185 -2.19735 -0.215295 3.68439 -13.669 -4.21563 
35.7142 99.5241 16.9893 0.993549 -2.92066 -1.76421 0 0 0 0.651938 1.30384 1.13643 -2.56067 1.4836 1.45241 5.99861 2.64593 -1.98472 -4.98281 0.465577 1.08325 -30.8712 3.23103 -5.23387 -43.7647 26.1283 -13.3937 -6.07592 -20.5673 -1.75139 -10.2577 0.399179 -4.44509 21.5576 4.28227 11.7424 55.9146 16.0568 4.50567 4.25954 -3.81369 8.36706 3.60642 0.154897 4.92269 0.607032 4.23848 7.7907 -1.44546 6.44493 -3.21851 3.55313 -8.18424 0.254321 0.682541 0.129438 -2.87859 -2.92082 3.99817 -8.58077 0.24895 5.40885 -0.520229 -11.18 -2.09579 -0.204931 3.69293 -13.7049 -4.26524 
35.7396 99.5298 16.9715 1.02313 -2.83236 -1.7919 0 0 0 1.29022 1.44092 1.10059 -3.71511 1.19608 1.63572 6.90922 2.73303 -2.2626 -5.37094 0.524484 1.1948 -29.7265 3.18266 -5.37307 -45.2463 23.8706 -13.517 -5.4837 -18.1754 -0.458851 -10.0084 0.386692 -4.41407 22.1762 4.35932 11.7 55.7973 15.9964 4.3946 4.22926 -3.73542 8.50297 3.28507 0.147156 5.12844 0.591177 4.17706 7.80872 -1.49492 6.33993 -3.13088 3.38271 -8.11755 0.23997 0.692126 0.359497 -2.95778 -2.96296 3.90277 -8.60331 0.261394 5.35436 -0.432156 -11.422 -1.88851 -0.188644 3.73809 -13.8955 -4.25949 
35.7355 99.5357 16.9648 1.02972 -2.86786 -1.81031 0 0 0 1.1821 1.55324 1.06164 -3.5646 1.19899 1.56298 6.44303 2.76247 -2.12991 -4.8823 0.530922 1.06703 -29.8227 3.15764 -5.28093 -45.0999 24.0973 -13.424 -5.54296 -18.3697 -0.754011 -10.0727 0.392756 -4.45437 22.0991 4.36421 11.7552 55.7768 15.8923 4.47494 4.22317 -3.8404 8.48384 3.54504 0.156253 5.0476 0.603693 4.16964 7.87072 -1.53348 6.47949 -3.09333 3.18353 -8.30917 0.231301 0.696063 0.814716 -3.04772 -2.97599 3.92381 -8.59603 0.215786 5.39273 -0.618952 -11.0111 -2.27725 -0.219883 3.5869 -13.2639 -3.92811 
35.7384 99.5262 16.9738 0.979551 -2.91088 -1.80323 0 0 0 1.00769 1.57921 1.10051 -3.1243 1.24958 1.51622 6.06394 2.79437 -2.09492 -4.83506 0.81783 0.982571 -30.3385 3.17699 -5.21119 -44.538 24.5579 -13.4318 -5.68336 -18.6857 -1.00477 -10.1474 0.402223 -4.52853 21.7185 4.29955 11.7215 55.9279 15.791 4.55177 4.08729 -3.20259 8.37049 3.26968 0.147265 5.15401 0.680624 4.15479 7.90899 -1.53577 6.61907 -3.21458 3.35393 -8.31227 0.24372 0.712541 0.155343 -3.00785 -2.91923 3.96962 -8.55941 0.262555 5.37718 -0.524006 -11.4331 -1.94277 -0.192988 3.73926 -13.8947 -4.19028 
35.7337 99.5062 16.999 0.78858 -3.08126 -1.88737 0 0 0 1.36275 1.79867 1.05556 -3.36681 1.22161 1.4935 5.9378 2.87534 -1.85218 -4.67038 0.726491 1.14412 -30.3344 3.13873 -5.10783 -44.4077 24.6256 -13.4297 -5.6649 -18.6165 -0.955644 -10.2679 0.39413 -4.38339 21.7814 4.33601 11.8173 55.7942 15.8141 4.52287 4.07401 -3.30479 8.55055 3.36888 0.146521 4.97888 0.940556 4.25033 8.15129 -1.59564 6.91928 -3.34586 3.39336 -8.56888 0.253665 0.657813 0.214751 -2.79128 -2.70681 4.18387 -8.37987 0.299727 5.33038 -0.298692 -12.3456 -1.33919 -0.145032 3.95407 -14.8346 -4.82069 
35.7561 99.4934 16.9919 0.932941 -2.9284 -1.84778 0 0 0 0.651306 1.526 1.0985 -2.50263 1.44246 1.39125 5.71827 2.80203 -1.83538 -4.65103 0.77715 1.08461 -30.6858 3.15411 -5.06811 -43.8516 25.9123 -13.4202 -6.05514 -20.2353 -1.74076 -10.01 0.371533 -4.24071 21.7199 4.32465 11.8084 55.5594 16.0415 4.59181 4.32053 -4.39189 8.55087 3.78171 0.16588 5.02465 0.695333 4.12363 7.93601 -1.55738 6.74328 -3.25414 3.95645 -8.13864 0.281649 0.672568 -0.173208 -2.78721 -2.89521 3.97517 -8.54262 0.332222 5.40556 -0.657219 -11.7856 -1.89538 -0.195841 3.80386 -14.1754 -4.01458 
35.7721 99.5003 17.0143 0.837505 -3.01452 -1.77468 0 0 0 1.35799 1.7631 1.00929 -3.42538 1.20124 1.4596 6.06152 3.02089 -1.9602 -4.67286 0.771282 1.08614 -30.1593 3.12502 -5.11089 -44.6826 24.1776 -13.3839 -5.58162 -18.2591 -0.973857 -10.2079 0.391142 -4.37701 21.9735 4.36996 11.8384 55.6703 16.3686 4.4939 4.76307 -6.28935 8.52543 3.24295 0.147075 5.18923 0.848273 4.13558 8.06938 -1.574 6.99503 -3.25815 3.50026 -8.56587 0.262271 0.817554 0.511606 -3.49641 -2.78714 4.11806 -8.48001 0.282174 5.35647 -0.702437 -11.5846 -1.86352 -0.189075 3.79354 -14.1305 -3.99774 
35.7791 99.5178 17.0235 0.893315 -2.90207 -1.75088 0 0 0 1.22396 1.59192 1.0889 -3.27265 1.28966 1.51942 5.97064 2.98496 -2.03371 -4.59426 0.833653 0.966949 -30.1732 3.16737 -5.22415 -44.5256 24.4662 -13.501 -5.6302 -18.3158 -0.926011 -10.4273 0.399391 -4.37458 21.9858 4.29044 11.5561 55.565 16.4021 4.58688 4.7053 -5.93515 8.56526 3.0734 0.143813 5.36023 0.782284 4.07178 8.00522 -1.56419 6.86733 -3.3358 3.21106 -8.58633 0.241029 0.732412 0.916833 -3.21271 -2.8507 4.00363 -8.50889 0.275196 5.38645 -0.61486 -11.5613 -1.92804 -0.195054 3.75555 -13.9711 -4.11316 
35.8077 99.512 17.0471 0.859019 -2.94606 -1.69456 0 0 0 1.42735 1.68508 1.0217 -3.51997 1.21576 1.49454 6.12085 2.93312 -2.01554 -4.51834 1.05782 1.02178 -29.834 3.14961 -5.25578 -45.1004 23.8278 -13.4371 -5.51253 -18.0975 -0.793171 -10.3208 0.386286 -4.27506 21.9995 4.33666 11.7097 55.6785 16.4036 4.51427 4.83567 -6.58537 8.49076 2.63231 0.127181 5.52685 0.8166 4.09985 8.05072 -1.63119 6.92767 -3.46179 3.67453 -8.52308 0.273893 0.751628 0.385846 -3.20795 -2.85314 4.06758 -8.56327 0.303449 5.41503 -0.653904 -11.2306 -1.97741 -0.193979 3.71353 -13.7885 -4.19633 
35.8322 99.4757 17.0294 1.02087 -2.79599 -1.55662 0 0 0 1.00793 1.49431 0.998042 -3.11959 1.32497 1.39304 5.91086 2.80082 -1.93192 -4.5333 1.12678 1.03685 -30.121 3.15197 -5.1942 -44.7572 24.1886 -13.4997 -5.58398 -18.185 -0.980935 -10.4052 0.400621 -4.39734 21.8841 4.31283 11.6848 55.6236 16.5093 4.53194 4.8708 -6.67288 8.53192 2.78382 0.137733 5.66412 0.700427 3.75969 7.98898 -1.65211 7.26406 -3.40595 3.60032 -8.7106 0.274296 0.773441 0.461049 -3.31012 -3.06285 3.91024 -8.6714 0.444962 5.35991 -0.455764 -11.6598 -1.57982 -0.161411 3.93059 -14.7379 -4.86777 
35.8382 99.4808 17.0561 0.955066 -2.85735 -1.60747 0 0 0 1.25773 1.61795 0.889251 -3.28613 1.2389 1.30775 5.5623 2.90964 -1.74764 -4.06527 0.997437 0.99851 -30.1978 3.09971 -5.03251 -44.9749 23.5495 -13.3366 -5.45337 -17.977 -0.984611 -10.2378 0.381354 -4.25547 21.8359 4.39855 12.0079 55.7142 16.4606 4.34721 4.89248 -6.93082 8.76321 2.668 0.131876 5.66076 0.746223 3.80543 7.99597 -1.62935 7.33731 -3.5106 3.77137 -8.5918 0.283429 0.755338 0.11736 -3.18041 -3.01029 3.98672 -8.65261 0.433219 5.38775 -0.188375 -11.3575 -1.58098 -0.156408 3.90254 -14.6235 -5.215 
35.8683 99.5165 17.0796 0.986738 -2.75179 -1.63673 0 0 0 1.30112 1.42575 0.911299 -3.37268 1.31262 1.36277 5.73597 2.98474 -1.79788 -4.17623 0.980954 1.03314 -30.0994 3.10971 -5.0829 -44.7656 24.2966 -13.2271 -5.62744 -18.8345 -1.41123 -10.2411 0.377968 -4.21558 21.9785 4.41796 12.0025 55.6821 16.6206 4.30619 5.0787 -7.63334 8.86344 2.43141 0.119756 5.64619 0.665231 3.85873 7.93673 -1.64533 6.9913 -3.3091 3.69835 -8.39964 0.271636 0.78702 0.23162 -3.33045 -3.08099 3.86506 -8.71975 0.478945 5.40027 -0.226015 -12.1007 -1.22746 -0.129934 4.03753 -15.1977 -4.90424 
35.8794 99.477 17.0741 1.06675 -2.69835 -1.51458 0 0 0 1.23997 1.42931 0.831896 -3.44661 1.23005 1.28669 5.87158 3.10181 -1.78058 -4.25794 0.888938 1.1148 -30.1173 3.09441 -5.03663 -44.341 25.6087 -13.0605 -5.92634 -20.1154 -2.11932 -10.0712 0.359122 -4.07435 22.0781 4.45116 12.0669 55.5534 16.0236 4.25493 4.41663 -5.0887 9.0037 2.96625 0.133559 5.15492 0.597675 3.67689 7.88186 -1.62863 7.23752 -3.37597 3.76596 -8.56857 0.282214 0.780009 0.179939 -3.29332 -3.16774 3.82652 -8.78672 0.485025 5.39789 -0.536622 -11.493 -1.76897 -0.178293 3.88898 -14.544 -4.40315 
35.887 99.4686 17.0977 0.990923 -2.65323 -1.60927 0 0 0 1.362 1.34661 0.835935 -3.42315 1.25466 1.28283 5.7009 3.23285 -1.78198 -4.14415 0.935612 1.03967 -30.0716 3.09327 -5.04409 -45.108 23.4194 -13.1653 -5.42767 -18.0555 -1.08347 -10.0012 0.361725 -4.13256 21.9755 4.46668 12.1731 55.6005 15.5865 4.24704 3.99822 -3.4158 8.98154 3.66697 0.161497 5.03712 0.707081 3.63053 8.00653 -1.75865 7.30612 -3.39977 4.07965 -8.55672 0.3053 0.804751 -0.247029 -3.33081 -3.09139 3.7701 -8.70467 0.467214 5.44665 -0.297523 -11.5527 -1.65279 -0.16663 3.92451 -14.7037 -4.89579 
35.9008 99.5003 17.1201 0.967498 -2.76446 -1.57564 0 0 0 1.14808 1.3714 0.885086 -2.99809 1.39735 1.25917 5.66012 3.17628 -1.8547 -4.35135 1.1701 1.00833 -30.5293 3.11664 -5.0026 -44.3541 24.6102 -13.2291 -5.72281 -19.1594 -1.61408 -10.109 0.358674 -4.05395 21.8174 4.41913 12.0892 55.5867 15.839 4.29857 4.22536 -4.30548 9.01489 3.61079 0.157002 4.99297 0.684517 3.84402 7.95592 -1.64039 7.14297 -3.35842 3.71556 -8.57785 0.278747 0.809035 0.203718 -3.41737 -3.09305 3.91595 -8.74526 0.501037 5.38617 -0.0271724 -11.8839 -1.18776 -0.123248 4.07222 -15.3664 -5.28804 
35.898 99.481 17.1338 1.00356 -2.75337 -1.61788 0 0 0 0.88059 1.28762 0.915069 -2.62306 1.4927 1.21447 5.33095 3.28032 -1.66088 -4.1332 1.03963 1.04288 -30.7528 3.12006 -4.96141 -44.1195 25.0497 -13.1936 -5.8705 -19.8415 -1.86866 -9.9571 0.367534 -4.2167 21.6012 4.39747 12.1245 55.6846 15.7972 4.35076 4.18163 -4.06377 8.92929 3.53886 0.152158 4.98899 0.694934 3.83099 8.05579 -1.76283 7.18375 -3.5018 3.81872 -8.51383 0.28435 0.730571 0.151786 -3.0831 -3.11771 3.9271 -8.75227 0.463269 5.41096 -0.451495 -11.4718 -1.95693 -0.196904 3.8011 -14.1697 -4.47023 
